<svg xmlns="http://www.w3.org/2000/svg" width="1280" height="640" viewBox="0 0 1280 640" role="img" aria-labelledby="title desc">
  <title id="title">PCI DSS Network Segmentation</title>
  <desc id="desc">White enterprise banner with payment, network, security and compliance icons.</desc>
  <defs>
    <filter id="shadow" x="-20%" y="-20%" width="140%" height="140%">
      <feDropShadow dx="0" dy="4" stdDeviation="7" flood-color="#17324d" flood-opacity=".10"/>
    </filter>
    <style>
      .navy{stroke:#12345b}.blue{stroke:#1473e6}.pale{stroke:#dceafa}.gray{fill:#66758a}
      .line{fill:none;stroke-width:4;stroke-linecap:round;stroke-linejoin:round}
      .thin{fill:none;stroke-width:2;stroke-linecap:round;stroke-linejoin:round}
    </style>
  </defs>
  <rect width="1280" height="640" fill="#ffffff"/>

  <g class="pale thin" opacity=".9">
    <path d="M38 92h72l24 24h70"/>
    <path d="M38 548h92l26-26h66"/>
    <path d="M1060 94h72l24-24h86"/>
    <path d="M1050 548h88l28-28h76"/>
    <path d="M92 144v34m0 18v10M1188 432v34m0 18v10"/>
    <circle cx="38" cy="92" r="5" fill="#dceafa"/><circle cx="204" cy="116" r="5" fill="#dceafa"/>
    <circle cx="38" cy="548" r="5" fill="#dceafa"/><circle cx="222" cy="522" r="5" fill="#dceafa"/>
    <circle cx="1060" cy="94" r="5" fill="#dceafa"/><circle cx="1242" cy="70" r="5" fill="#dceafa"/>
    <circle cx="1050" cy="548" r="5" fill="#dceafa"/><circle cx="1242" cy="520" r="5" fill="#dceafa"/>
  </g>

  <g fill="#dceafa" opacity=".85">
    <circle cx="55" cy="55" r="3"/><circle cx="75" cy="55" r="3"/><circle cx="95" cy="55" r="3"/><circle cx="115" cy="55" r="3"/>
    <circle cx="55" cy="75" r="3"/><circle cx="75" cy="75" r="3"/><circle cx="95" cy="75" r="3"/><circle cx="115" cy="75" r="3"/>
    <circle cx="1165" cy="565" r="3"/><circle cx="1185" cy="565" r="3"/><circle cx="1205" cy="565" r="3"/><circle cx="1225" cy="565" r="3"/>
    <circle cx="1165" cy="585" r="3"/><circle cx="1185" cy="585" r="3"/><circle cx="1205" cy="585" r="3"/><circle cx="1225" cy="585" r="3"/>
  </g>

  <g transform="translate(100 190)" filter="url(#shadow)">
    <rect x="0" y="0" width="190" height="122" rx="16" fill="#fff" stroke="#12345b" stroke-width="4"/>
    <rect x="0" y="24" width="190" height="25" fill="#1473e6" opacity=".12"/>
    <path d="M22 74h62M22 94h42" class="navy line"/>
    <rect x="124" y="72" width="42" height="30" rx="5" fill="#e8f2ff" stroke="#1473e6" stroke-width="3"/>
    <path d="M136 72v-9a9 9 0 0 1 18 0v9" class="blue line"/>
  </g>

  <g transform="translate(365 172)" filter="url(#shadow)">
    <rect x="61" y="0" width="82" height="64" rx="12" fill="#fff" stroke="#1473e6" stroke-width="4"/>
    <rect x="0" y="126" width="82" height="64" rx="12" fill="#fff" stroke="#12345b" stroke-width="4"/>
    <rect x="122" y="126" width="82" height="64" rx="12" fill="#fff" stroke="#12345b" stroke-width="4"/>
    <path d="M102 64v28M41 126v-20h122v20" class="navy line"/>
    <rect x="84" y="84" width="36" height="34" rx="6" fill="#e8f2ff" stroke="#1473e6" stroke-width="3"/>
    <path d="M92 84v-8a10 10 0 0 1 20 0v8" class="blue line"/>
    <circle cx="102" cy="32" r="8" fill="#1473e6"/>
    <circle cx="41" cy="158" r="8" fill="#12345b"/>
    <circle cx="163" cy="158" r="8" fill="#12345b"/>
  </g>

  <g transform="translate(910 178)" filter="url(#shadow)">
    <path d="M92 0c30 23 56 27 77 31v62c0 47-30 78-77 101C45 171 15 140 15 93V31C36 27 62 23 92 0Z" fill="#fff" stroke="#1473e6" stroke-width="5"/>
    <circle cx="92" cy="91" r="42" fill="#f3f8ff" stroke="#12345b" stroke-width="4"/>
    <path d="m70 92 15 15 31-36" class="blue line" stroke-width="7"/>
  </g>

  <g transform="translate(1080 205)" filter="url(#shadow)">
    <rect x="0" y="0" width="125" height="158" rx="12" fill="#fff" stroke="#12345b" stroke-width="4"/>
    <path d="M40 0v-13h45V0" class="navy line"/>
    <rect x="18" y="37" width="22" height="22" rx="3" fill="#e8f2ff" stroke="#1473e6" stroke-width="3"/>
    <rect x="18" y="76" width="22" height="22" rx="3" fill="#e8f2ff" stroke="#1473e6" stroke-width="3"/>
    <rect x="18" y="115" width="22" height="22" rx="3" fill="#e8f2ff" stroke="#1473e6" stroke-width="3"/>
    <path d="m23 48 6 6 9-12M23 87l6 6 9-12M23 126l6 6 9-12" class="blue thin" stroke-width="3"/>
    <path d="M54 48h49M54 87h49M54 126h49" class="navy thin" stroke-width="3"/>
  </g>

  <text x="640" y="397" text-anchor="middle" fill="#1267c4" font-family="Arial, Helvetica, sans-serif" font-size="58" font-weight="400">PCI DSS Network Segmentation</text>
  <line x1="345" y1="427" x2="935" y2="427" stroke="#1473e6" stroke-width="3"/>
  <text x="640" y="474" text-anchor="middle" class="gray" font-family="Arial, Helvetica, sans-serif" font-size="25" letter-spacing=".5">Scope Assessment  •  Control Testing  •  Remediation</text>
</svg>
